<svg width="32" height="32" viewBox="0 0 32 32" fill="none" xmlns="http://www.w3.org/2000/svg">
    <path d="M14.4487 16.4809L14.4467 16.0088C14.4467 14.0466 14.5616 12.2578 14.7347 11.0916L14.8863 10.3664C14.9707 9.98238 15.0816 9.54507 15.1972 9.32183C15.6205 8.50523 16.4481 8 17.3339 8H17.411C17.9885 8.01909 19.2016 8.52579 19.2016 8.54342C21.1535 9.36244 24.9194 11.8343 26.6587 13.5965L27.1641 14.1256C27.2964 14.269 27.4451 14.4387 27.5375 14.571C27.8458 14.9793 28 15.4845 28 15.9897C28 16.5537 27.8269 17.078 27.4996 17.5069L26.9804 18.0673L26.864 18.1869C25.2859 19.8979 21.1652 22.6958 19.0096 23.552L18.6841 23.6768C18.2925 23.8171 17.7438 23.9846 17.411 24C16.9878 24 16.5834 23.9016 16.198 23.7077C15.7165 23.436 15.3325 23.0072 15.1202 22.5019C14.9849 22.1524 14.7725 21.1023 14.7725 21.0832C14.5778 20.0243 14.465 18.3536 14.4487 16.4809ZM4 15.9994C4 14.8817 4.89744 13.9755 6.00434 13.9755L10.9366 14.4117C11.805 14.4117 12.509 15.1226 12.509 15.9994C12.509 16.8777 11.805 17.5871 10.9366 17.5871L6.00434 18.0233C4.89744 18.0233 4 17.1171 4 15.9994Z" fill="white"/>
    </svg>
    