<svg width="35" height="35" viewBox="0 0 35 35" fill="none" xmlns="http://www.w3.org/2000/svg">
    <path d="M31.2484 3.7601C30.5192 3.01489 29.4401 2.73927 28.4338 3.03093L4.96924 9.81073C3.90757 10.1053 3.15507 10.9468 2.95236 12.0143C2.74528 13.1022 3.46861 14.4847 4.41361 15.0622L11.7505 19.5422C12.503 20.003 13.4742 19.8878 14.0969 19.2636L22.4984 10.8622C22.9213 10.4232 23.6213 10.4232 24.0442 10.8622C24.4672 11.2836 24.4672 11.9705 24.0442 12.408L15.6282 20.8095C15.004 21.4336 14.8874 22.402 15.3467 23.1559L19.8297 30.5205C20.3547 31.3941 21.2588 31.8914 22.2505 31.8914C22.3672 31.8914 22.4984 31.8913 22.6151 31.8753C23.7526 31.7309 24.6567 30.9566 24.9922 29.8628L31.9484 6.57468C32.2547 5.58302 31.9776 4.50385 31.2484 3.7601Z" fill="#3DC89E"/>
    <path opacity="0.4" d="M13.7835 27.9157C14.2093 28.343 14.2093 29.0357 13.7835 29.463L11.7914 31.4536C11.5785 31.668 11.2985 31.7745 11.0185 31.7745C10.7385 31.7745 10.4585 31.668 10.2456 31.4536C9.81828 31.0263 9.81828 30.3351 10.2456 29.9078L12.2362 27.9157C12.6635 27.4899 13.3562 27.4899 13.7835 27.9157ZM12.6406 22.3915C13.0664 22.8188 13.0664 23.5115 12.6406 23.9388L10.6485 25.9295C10.4356 26.1438 10.1556 26.2503 9.87559 26.2503C9.59559 26.2503 9.31559 26.1438 9.10267 25.9295C8.67538 25.5022 8.67538 24.8109 9.10267 24.3836L11.0933 22.3915C11.5206 21.9657 12.2133 21.9657 12.6406 22.3915ZM7.1555 20.6526C7.58134 21.0799 7.58134 21.7726 7.1555 22.1999L5.16342 24.1905C4.9505 24.4049 4.6705 24.5114 4.3905 24.5114C4.1105 24.5114 3.8305 24.4049 3.61759 24.1905C3.1903 23.7633 3.1903 23.072 3.61759 22.6447L5.60821 20.6526C6.0355 20.2268 6.72821 20.2268 7.1555 20.6526Z" fill="#3DC89E"/>
    </svg>
    